<svg width="140" height="60" viewBox="0 0 140 60" fill="none" xmlns="http://www.w3.org/2000/svg">
<path d="M52.42 20.6808C52.3646 20.6219 52.3144 20.5584 52.27 20.4908C51.8576 19.7949 51.3999 19.1268 50.9 18.4908C50.4207 17.838 49.8961 17.2198 49.33 16.6408C49 16.3108 48.69 15.9608 48.33 15.6408C47.4382 14.7723 46.4785 13.9765 45.46 13.2608C44.5443 12.5867 43.5819 11.9785 42.58 11.4408C41.89 11.0708 41.2 10.7308 40.49 10.4408C39.6151 10.0144 38.717 9.63711 37.8 9.31078C36.522 8.86238 35.2069 8.52775 33.87 8.31078C33.0994 8.1781 32.3212 8.0946 31.54 8.06078C30.8 8.06078 30.06 8.01078 29.33 8.06078C27.7617 8.11991 26.2067 8.37181 24.7 8.81078C23.1241 9.26601 21.6196 9.93918 20.23 10.8108C19.5298 11.2424 18.8614 11.7236 18.23 12.2508C17.4773 12.8818 16.7782 13.5742 16.14 14.3208C15.3019 15.2981 14.5585 16.3528 13.92 17.4708C13.2435 18.6643 12.7002 19.9285 12.3 21.2408C11.9973 22.2202 11.7798 23.2239 11.65 24.2408C11.6451 24.3274 11.6451 24.4142 11.65 24.5008C12.476 21.9505 13.9796 19.6726 16 17.9108C16.07 17.9908 16 18.0408 16 18.0808C15.5057 18.9009 15.0873 19.7645 14.75 20.6608C14.2486 21.9676 13.8931 23.3259 13.69 24.7108C13.4985 26.1389 13.4316 27.581 13.49 29.0208C13.4994 29.7509 13.6313 30.4743 13.88 31.1608C14.0753 31.7745 14.4693 32.3058 15 32.6708C15.3764 32.9072 15.8063 33.0448 16.25 33.0708C16.8119 33.0873 17.3741 33.0539 17.93 32.9708C18.744 32.8494 19.5674 32.8026 20.39 32.8308C21.3846 32.8875 22.3468 33.2048 23.18 33.7508C23.737 34.11 24.2475 34.5366 24.7 35.0208C24.7548 35.0907 24.8049 35.1642 24.85 35.2408H24.56H21.61C21.246 35.232 20.8834 35.2896 20.54 35.4108C20.296 35.4895 20.0716 35.6195 19.8819 35.7919C19.6922 35.9644 19.5416 36.1754 19.44 36.4108C19.3389 36.6575 19.3011 36.9257 19.33 37.1908C19.4061 37.705 19.6204 38.1889 19.95 38.5908C20.21 38.9408 20.47 39.3008 20.77 39.5908C21.1031 39.9893 21.5022 40.3276 21.95 40.5908C22.6388 40.9831 23.4016 41.2283 24.19 41.3108C24.7 41.3708 25.19 41.4508 25.72 41.5008L26.92 41.6008C27.52 41.6008 28.12 41.7008 28.72 41.7708C29.041 41.8056 29.3496 41.9139 29.6219 42.0873C29.8941 42.2608 30.1228 42.4946 30.29 42.7708C30.7 43.3808 31.09 44.0108 31.48 44.6308C32.3267 45.9974 33.17 47.3674 34.01 48.7408C34.42 49.4208 34.84 50.1108 35.24 50.8108C35.3713 51.017 35.4607 51.247 35.5032 51.4877C35.5456 51.7284 35.5402 51.9752 35.4873 52.2138C35.4343 52.4525 35.3349 52.6784 35.1947 52.8786C35.0545 53.0788 34.8762 53.2495 34.67 53.3808C34.4638 53.5121 34.2338 53.6015 33.9931 53.6439C33.7523 53.6864 33.5056 53.681 33.2669 53.628C33.0283 53.5751 32.8024 53.4757 32.6022 53.3355C32.402 53.1952 32.2313 53.017 32.1 52.8108C31.81 52.3208 31.54 51.8108 31.25 51.3508C30.44 49.9708 29.62 48.6008 28.8 47.2208C28.7567 47.1462 28.7065 47.0759 28.65 47.0108C28.5957 46.9643 28.5265 46.9388 28.455 46.9388C28.3835 46.9388 28.3143 46.9643 28.26 47.0108C28.2307 47.0289 28.2055 47.0529 28.186 47.0813C28.1665 47.1096 28.153 47.1417 28.1464 47.1755C28.1398 47.2093 28.1403 47.2441 28.1478 47.2777C28.1553 47.3113 28.1697 47.343 28.19 47.3708C28.34 47.6608 28.5 47.9608 28.67 48.2508L30.35 51.1708L30.92 52.1708C31.0067 52.311 31.074 52.4624 31.12 52.6208C31.1821 52.8371 31.193 53.065 31.1518 53.2863C31.1105 53.5076 31.0183 53.7163 30.8825 53.8958C30.7467 54.0753 30.5709 54.2207 30.3691 54.3205C30.1673 54.4203 29.9451 54.4717 29.72 54.4708C29.3706 54.4791 29.0266 54.3825 28.7326 54.1936C28.4385 54.0047 28.2077 53.732 28.07 53.4108C27.8 52.7808 27.49 52.1708 27.18 51.5608L25.62 48.3908C25.54 48.2408 25.48 48.0908 25.39 47.9508C25.3314 47.8525 25.2608 47.7618 25.18 47.6808C25.1321 47.6372 25.0697 47.6131 25.005 47.6131C24.9403 47.6131 24.8779 47.6372 24.83 47.6808C24.7742 47.7124 24.7326 47.7643 24.714 47.8258C24.6954 47.8872 24.7011 47.9535 24.73 48.0108L24.82 48.1908C25.44 49.4508 26.07 50.7108 26.7 51.9708C26.87 52.3208 27.01 52.6808 27.2 52.9708C27.3298 53.2336 27.3597 53.5346 27.2843 53.8178C27.2089 54.101 27.0333 54.3473 26.79 54.5108C26.5864 54.6476 26.3525 54.7328 26.1086 54.7589C25.8646 54.7851 25.618 54.7514 25.39 54.6608C25.1666 54.5861 24.9618 54.4645 24.7893 54.3041C24.6168 54.1437 24.4806 53.9482 24.39 53.7308C24.05 52.9308 23.72 52.1408 23.39 51.3508C23.06 50.5608 22.66 49.8008 22.3 49.0208C22.2 48.7908 22.1 48.5708 21.99 48.3508C21.9631 48.2841 21.9124 48.2298 21.8477 48.1984C21.7831 48.167 21.709 48.1607 21.64 48.1808C21.5969 48.1864 21.5558 48.202 21.5198 48.2263C21.4838 48.2506 21.4539 48.283 21.4326 48.3208C21.4112 48.3587 21.399 48.4009 21.3968 48.4443C21.3946 48.4877 21.4026 48.531 21.42 48.5708C21.42 48.7008 21.52 48.8208 21.57 48.9508C22.22 50.3708 22.87 51.8008 23.57 53.2208C23.6821 53.4734 23.7066 53.7563 23.6395 54.0244C23.5725 54.2925 23.4178 54.5306 23.2 54.7008C23.0109 54.8649 22.7804 54.9741 22.5335 55.0164C22.2867 55.0587 22.033 55.0325 21.8 54.9408C21.5542 54.8728 21.3285 54.7464 21.1421 54.5722C20.9558 54.3981 20.8144 54.1814 20.73 53.9408C20.43 53.1508 20.13 52.3608 19.82 51.5708C19.7249 51.3355 19.6112 51.1081 19.48 50.8908C19.2567 50.5444 18.9319 50.2755 18.55 50.1208L18.35 50.0208C18.35 49.9008 18.42 49.7908 18.44 49.6808C18.5254 49.2863 18.465 48.8742 18.27 48.5208C18.051 48.054 17.7043 47.6587 17.27 47.3808L17.12 47.2908C17.0715 47.267 17.0329 47.227 17.0109 47.1776C16.989 47.1282 16.9851 47.0727 17 47.0208C17.0153 46.8879 17.0153 46.7537 17 46.6208C17.0114 46.1523 16.8788 45.6915 16.62 45.3008C16.3523 44.8348 15.9266 44.4801 15.42 44.3008L15.33 44.2508C15.33 44.0608 15.42 43.8608 15.48 43.6608C15.5353 43.4748 15.5353 43.2768 15.48 43.0908C15.3774 42.6446 15.1522 42.236 14.83 41.9108C14.6326 41.7124 14.3911 41.5637 14.1251 41.4768C13.8592 41.3899 13.5764 41.3673 13.3 41.4108C12.6 41.5008 11.9 41.6108 11.2 41.7108L9.84 41.8708C9.77895 41.8858 9.71457 41.879 9.65798 41.8516C9.60139 41.8242 9.55613 41.778 9.53 41.7208C9.27 41.2808 9 40.8508 8.76 40.4108C8.1243 39.2386 7.59872 38.01 7.19 36.7408C6.70855 35.2161 6.3737 33.649 6.19 32.0608C6.07969 31.2518 6.01625 30.4371 6 29.6208C6 29.3708 6 29.1108 6 28.8608C6 28.1408 6 27.4208 6.1 26.7008C6.21394 25.2854 6.45491 23.883 6.82 22.5108C7.11114 21.4372 7.47532 20.3847 7.91 19.3608C8.53593 17.8945 9.3064 16.4943 10.21 15.1808C10.6889 14.4883 11.2029 13.8208 11.75 13.1808C12.2832 12.5627 12.8508 11.9751 13.45 11.4208C14.1766 10.7538 14.9413 10.1294 15.74 9.55078C16.37 9.09078 17.03 8.67078 17.74 8.27078C18.6891 7.72124 19.6709 7.23032 20.68 6.80078C21.7104 6.35879 22.7736 5.9977 23.86 5.72078C24.8495 5.48644 25.8509 5.30617 26.86 5.18078C28.2337 5.01952 29.6179 4.96603 31 5.02078C31.76 5.02078 32.51 5.14078 33.26 5.22078C34.3842 5.35727 35.497 5.5745 36.59 5.87078C37.6386 6.17332 38.6617 6.55784 39.65 7.02078C40.8685 7.54572 42.0395 8.17472 43.15 8.90078C44.0422 9.47079 44.8912 10.1059 45.69 10.8008C46.08 11.1508 46.48 11.4908 46.85 11.8008C47.808 12.7487 48.6844 13.7757 49.47 14.8708C50.4958 16.3036 51.3453 17.8548 52 19.4908C52.13 19.8108 52.26 20.1208 52.38 20.4908C52.4046 20.5628 52.4247 20.6362 52.44 20.7108L52.42 20.6808Z" fill="#1E427F"/>
<path d="M53.9398 29.0705C53.9445 29.1004 53.9445 29.1307 53.9398 29.1605C53.9398 29.5205 53.9398 29.8805 53.9398 30.2405C53.9398 30.7505 53.9398 31.2405 53.8698 31.7605C53.7998 32.2805 53.8698 32.5005 53.7898 32.8605C53.6998 33.5705 53.6098 34.2805 53.4798 34.9805C53.258 36.2511 52.9233 37.4994 52.4798 38.7105C52.2598 39.2905 52.0498 39.8705 51.8198 40.4305C51.3515 41.5625 50.7826 42.6502 50.1198 43.6805C49.7782 44.2354 49.4042 44.7696 48.9998 45.2805C48.6298 45.7305 48.2398 46.1605 47.8598 46.6005C47.6398 46.8505 47.4198 47.1105 47.1898 47.3405C46.9822 47.56 46.7618 47.767 46.5298 47.9605C46.1798 48.2705 45.8298 48.5805 45.4598 48.8805C45.0898 49.1805 44.6898 49.5005 44.2798 49.7805C43.7098 50.1605 43.1398 50.5405 42.5398 50.8905C41.8973 51.2701 41.229 51.6043 40.5398 51.8905C39.9798 52.1205 39.4198 52.3505 38.8598 52.5605C38.6098 52.6605 38.3398 52.7105 38.0698 52.7905C37.9303 52.8304 37.7838 52.8394 37.6405 52.8169C37.4972 52.7945 37.3605 52.7411 37.2398 52.6605C36.9932 52.5111 36.7926 52.2966 36.6598 52.0405C36.3498 51.4805 36.0698 50.9005 35.7298 50.3505C34.8398 48.8705 33.9298 47.4105 33.0298 45.9405C32.5998 45.2505 32.1898 44.5505 31.7598 43.8705C31.3298 43.1905 31.0898 42.8105 30.7598 42.3105C30.502 41.9281 30.1574 41.6119 29.7543 41.3877C29.3512 41.1636 28.9008 41.0378 28.4398 41.0205C27.7598 41.0205 27.0898 40.9305 26.4398 40.8605C25.5398 40.7605 24.6298 40.6505 23.7298 40.5205C22.9912 40.3976 22.2999 40.0761 21.7298 39.5905C21.2989 39.24 20.9245 38.8251 20.6198 38.3605C20.4432 38.1077 20.2828 37.8438 20.1398 37.5705C20.0347 37.3734 19.9928 37.1487 20.0196 36.9269C20.0464 36.7051 20.1408 36.497 20.2898 36.3305C20.4007 36.1903 20.54 36.075 20.6986 35.9923C20.8571 35.9096 21.0313 35.8613 21.2098 35.8505C21.5998 35.8505 21.9798 35.8505 22.3698 35.8505C25.8298 35.7605 29.2898 35.8505 32.7498 35.8505C33.1725 35.8467 33.5935 35.904 33.9998 36.0205C34.3402 36.1191 34.6521 36.2974 34.9098 36.5405C35.2456 36.8711 35.5533 37.229 35.8298 37.6105C36.3198 38.2605 36.8298 38.9005 37.3398 39.5305C37.5839 39.8312 37.8443 40.1183 38.1198 40.3905C38.5888 40.8502 39.1208 41.2408 39.6998 41.5505C40.4961 41.9688 41.3805 42.1916 42.2798 42.2005C43.4176 42.2098 44.5438 41.9709 45.5798 41.5005C46.5107 41.0926 47.3766 40.5501 48.1498 39.8905C48.6639 39.4531 49.1452 38.9785 49.5898 38.4705C50.4429 37.4891 51.1841 36.4159 51.7998 35.2705C52.2709 34.3762 52.6721 33.4468 52.9998 32.4905C53.3258 31.5472 53.5963 30.5855 53.8098 29.6105C53.8098 29.4805 53.8098 29.3405 53.8798 29.2005C53.8741 29.1541 53.8741 29.107 53.8798 29.0605L53.9398 29.0705Z" fill="#1AA4DE"/>
<path d="M10.3002 47.022C10.295 46.6996 10.3854 46.3829 10.5602 46.112C10.646 45.9508 10.7743 45.8162 10.9312 45.7228C11.0881 45.6293 11.2676 45.5807 11.4502 45.582C11.8988 45.5636 12.3444 45.5 12.7802 45.392L14.6102 44.952C14.9877 44.8429 15.3916 44.8712 15.7502 45.032C15.9502 45.1248 16.1253 45.264 16.2609 45.4378C16.3965 45.6117 16.4888 45.8154 16.5302 46.032C16.5554 46.2111 16.5554 46.3929 16.5302 46.572C16.5091 46.8237 16.4116 47.063 16.2507 47.2578C16.0899 47.4526 15.8734 47.5936 15.6302 47.662C15.2813 47.778 14.9234 47.865 14.5602 47.922C13.7502 48.082 12.9302 48.252 12.1202 48.432C11.7893 48.5217 11.438 48.5006 11.1202 48.372C10.8652 48.2534 10.6512 48.0619 10.5052 47.8215C10.3592 47.5812 10.2879 47.3029 10.3002 47.022Z" fill="#1AA4DE"/>
<path d="M10.9992 45.2119C10.7052 45.2413 10.4096 45.1755 10.1558 45.0243C9.90194 44.8731 9.70335 44.6444 9.5892 44.3719C9.50029 44.1577 9.45536 43.9278 9.45708 43.6959C9.4588 43.464 9.50713 43.2348 9.5992 43.0219C9.66556 42.8605 9.77555 42.7207 9.91684 42.6183C10.0581 42.5159 10.2252 42.4548 10.3992 42.4419L11.5692 42.2519L13.8392 41.8819C13.9847 41.8752 14.1298 41.9004 14.2646 41.9557C14.3993 42.011 14.5203 42.095 14.6192 42.2019C14.8671 42.4417 15.0138 42.7673 15.0292 43.1119C15.0716 43.3809 15.0334 43.6564 14.9195 43.9037C14.8056 44.1511 14.6211 44.3592 14.3892 44.5019C14.2447 44.5878 14.0852 44.6455 13.9192 44.6719C13.2192 44.8219 12.5192 44.9519 11.8092 45.0919L11.2792 45.2019L10.9992 45.2119Z" fill="#1AA4DE"/>
<path d="M13.7406 51.2809C13.5071 51.2962 13.2736 51.252 13.0619 51.1523C12.8503 51.0526 12.6674 50.9007 12.5306 50.7109C12.3555 50.4668 12.2674 50.171 12.2806 49.8709C12.2948 49.6461 12.3385 49.4242 12.4106 49.2109C12.4596 49.0454 12.5556 48.8978 12.687 48.786C12.8184 48.6741 12.9794 48.6029 13.1506 48.5809C13.5906 48.4909 14.0406 48.4309 14.4906 48.3409L16.1906 47.9609C16.4736 47.8959 16.7676 47.8959 17.0506 47.9609C17.2043 47.999 17.3481 48.0696 17.4723 48.1679C17.5965 48.2662 17.6982 48.39 17.7706 48.5309C17.9044 48.7547 17.9792 49.0088 17.9879 49.2694C17.9967 49.53 17.9391 49.7886 17.8206 50.0209C17.7324 50.1905 17.6062 50.3374 17.4518 50.4502C17.2974 50.5629 17.119 50.6385 16.9306 50.6709L14.2406 51.2609C14.0606 51.2509 13.8706 51.2609 13.7406 51.2809Z" fill="#1AA4DE"/>
<path d="M15.9998 53.9315C15.8155 53.9439 15.6307 53.9181 15.4569 53.8557C15.2831 53.7933 15.1241 53.6957 14.9898 53.5689C14.8556 53.4422 14.7489 53.289 14.6767 53.1191C14.6044 52.9492 14.568 52.7662 14.5698 52.5815C14.5455 52.2943 14.6045 52.0061 14.7398 51.7515C14.798 51.6458 14.878 51.5536 14.9745 51.4812C15.0711 51.4088 15.182 51.3577 15.2998 51.3315C15.7698 51.2315 16.2998 51.1515 16.7198 51.0715L17.9998 50.8515C18.1659 50.8219 18.3366 50.8299 18.4993 50.8749C18.6619 50.9199 18.8125 51.0007 18.9398 51.1115C19.2421 51.364 19.4384 51.721 19.4898 52.1115C19.5105 52.3342 19.4616 52.5578 19.3498 52.7515C19.2444 52.9588 19.09 53.1373 18.9001 53.2715C18.7102 53.4056 18.4904 53.4915 18.2598 53.5215L16.5498 53.8115L15.9998 53.9315Z" fill="#1AA4DE"/>
<path d="M44.4191 38.3521L44.3292 38.1821C44.2092 37.9021 44.0891 37.6121 43.9791 37.3321C43.9641 37.2662 43.9641 37.1979 43.9791 37.1321C43.9791 37.0621 43.8692 37.0021 43.8292 36.9321C43.6608 36.5726 43.4067 36.2601 43.0891 36.0221L42.9391 35.8921C42.853 35.8058 42.8047 35.6889 42.8047 35.5671C42.8047 35.4452 42.853 35.3283 42.9391 35.2421C43.0683 35.091 43.2323 34.9738 43.4171 34.9006C43.6018 34.8274 43.8016 34.8005 43.9991 34.8221C44.1184 34.8299 44.2361 34.8535 44.3491 34.8921C44.5165 34.9328 44.6651 35.0293 44.7704 35.1655C44.8758 35.3018 44.9318 35.4698 44.9291 35.6421C44.9246 35.6819 44.9246 35.7222 44.9291 35.7621C44.975 35.7482 45.0188 35.728 45.0592 35.7021C45.3953 35.5091 45.7505 35.3516 46.1191 35.2321C46.199 35.2109 46.2761 35.1807 46.3491 35.1421C46.4791 35.0721 46.4891 35.0121 46.3491 34.9021C46.2091 34.7921 46.0192 34.5621 45.8792 34.3821C45.5885 34.0876 45.3964 33.7103 45.3292 33.3021C45.279 33.0277 45.279 32.7465 45.3292 32.4721C45.3577 32.36 45.4014 32.2523 45.4591 32.1521C45.5891 31.9621 45.7291 31.7821 45.8591 31.6021C45.8761 31.5679 45.9041 31.5405 45.9386 31.5242C45.973 31.5079 46.012 31.5036 46.0491 31.5121C45.7862 31.9943 45.7013 32.5536 45.8092 33.0921C45.8368 33.0322 45.8703 32.9753 45.9091 32.9221C45.9744 32.8047 46.0681 32.7056 46.1817 32.6339C46.2953 32.5623 46.4251 32.5204 46.5592 32.5121C46.7039 32.5006 46.8487 32.5325 46.9752 32.6038C47.1016 32.675 47.204 32.7824 47.2691 32.9121C47.3393 33.0259 47.3812 33.1548 47.3915 33.2881C47.4018 33.4214 47.3801 33.5552 47.3283 33.6784C47.2765 33.8016 47.196 33.9107 47.0935 33.9966C46.991 34.0824 46.8695 34.1426 46.7392 34.1721C46.6662 34.1821 46.5921 34.1821 46.5191 34.1721C46.4459 34.1665 46.3724 34.1665 46.2991 34.1721C46.5863 34.5029 46.9238 34.7863 47.2991 35.0121C47.6591 35.2321 48.0391 35.4221 48.4091 35.6221V35.6821H48.2991C47.935 35.6289 47.5671 35.6055 47.1992 35.6121C46.5651 35.6115 45.9441 35.7919 45.4091 36.1321C45.1479 36.2913 44.9282 36.5103 44.7683 36.7711C44.6083 37.0319 44.5126 37.327 44.4892 37.6321C44.4792 37.8253 44.4792 38.0189 44.4892 38.2121C44.4939 38.2553 44.4939 38.2989 44.4892 38.3421L44.4191 38.3521Z" fill="#D95327"/>
<path d="M41.8297 33.2815C41.8744 33.0638 41.8744 32.8392 41.8297 32.6215C41.8248 32.5549 41.8248 32.4881 41.8297 32.4215C41.8376 32.1389 41.761 31.8603 41.6097 31.6215C41.3897 31.2082 41.1597 30.7982 40.9197 30.3915C40.9197 30.3015 40.7997 30.2115 40.7397 30.1215L40.8797 30.2015C41.3797 30.5615 41.8797 30.9415 42.3597 31.2715C42.6869 31.5089 43.0686 31.6602 43.4697 31.7115C44.0302 31.7406 44.5849 31.5861 45.0497 31.2715C45.5243 30.9721 45.9609 30.6162 46.3497 30.2115C46.4097 30.1515 46.4797 30.1115 46.5797 30.0215C46.5797 30.1115 46.5797 30.1515 46.5797 30.1815C46.3456 30.6644 46.0498 31.1148 45.6997 31.5215C45.5304 31.7009 45.3262 31.8438 45.0997 31.9415C44.7213 32.1144 44.3118 32.2089 43.8958 32.2192C43.4799 32.2295 43.0662 32.1555 42.6797 32.0015L42.4497 31.9115C42.2297 31.8415 42.1997 31.8615 42.2097 32.0915C42.2049 32.2899 42.2251 32.4881 42.2697 32.6815C42.3541 33.1462 42.2575 33.6257 41.9997 34.0215C41.8773 34.2145 41.7367 34.3953 41.5797 34.5615C41.4943 34.6536 41.4142 34.7504 41.3397 34.8515C41.2497 34.9615 41.2697 35.0515 41.3997 35.1115L41.8497 35.2815C42.0897 35.3915 42.3297 35.4915 42.5597 35.6115C42.6211 35.6378 42.6767 35.6761 42.723 35.7242C42.7694 35.7722 42.8057 35.8291 42.8297 35.8915C42.8775 35.9453 42.9352 35.9895 42.9997 36.0215C43.2457 36.2583 43.4669 36.5196 43.6597 36.8015C43.7465 36.911 43.7937 37.0467 43.7937 37.1865C43.7937 37.3263 43.7465 37.4619 43.6597 37.5715C43.5413 37.7567 43.444 37.9546 43.3697 38.1615C43.3464 38.2005 43.3196 38.2373 43.2897 38.2715C43.1897 38.2715 43.2197 38.1515 43.2197 38.0915C43.2546 37.8327 43.2546 37.5703 43.2197 37.3115C43.1453 36.8671 42.906 36.4672 42.5497 36.1915C42.0106 35.7745 41.3511 35.543 40.6697 35.5315C40.255 35.5046 39.8387 35.5281 39.4297 35.6015C39.3466 35.6113 39.2627 35.6113 39.1797 35.6015L39.2897 35.5215C39.9229 35.2436 40.5151 34.8802 41.0497 34.4415C41.2726 34.2806 41.457 34.0722 41.5897 33.8315C41.6257 33.7747 41.6558 33.7144 41.6797 33.6515L41.7497 33.5015L41.8397 33.2515L41.8297 33.2815Z" fill="#29AFE5"/>
<path d="M43.0008 33.8918C43.0059 33.8586 43.0059 33.8249 43.0008 33.7918C42.9915 33.6577 43.0216 33.5238 43.0873 33.4066C43.153 33.2893 43.2516 33.1938 43.3708 33.1318C43.5005 33.0532 43.6492 33.0117 43.8008 33.0117C43.9524 33.0117 44.1011 33.0532 44.2308 33.1318C44.3477 33.2035 44.4465 33.3014 44.5193 33.4176C44.5922 33.5338 44.6372 33.6653 44.6508 33.8018C44.6725 33.939 44.6504 34.0796 44.5875 34.2035C44.5247 34.3273 44.4244 34.4282 44.3008 34.4918C44.0964 34.5925 43.8669 34.6307 43.6408 34.6018C43.551 34.6008 43.4624 34.5812 43.3805 34.5442C43.2987 34.5073 43.2254 34.4537 43.1652 34.387C43.1051 34.3203 43.0595 34.2419 43.0312 34.1566C43.0029 34.0714 42.9925 33.9812 43.0008 33.8918Z" fill="#1E427F"/>
<path d="M41.7496 33.5221L41.6796 33.6721C41.6796 33.7321 41.5696 33.7821 41.5296 33.8421C41.4628 33.9267 41.3751 33.9924 41.2751 34.0327C41.1752 34.073 41.0664 34.0866 40.9596 34.0721C40.9034 34.0824 40.8458 34.0824 40.7896 34.0721C40.6017 33.9714 40.4508 33.8133 40.359 33.6208C40.2673 33.4283 40.2395 33.2115 40.2796 33.0021C40.3061 32.8901 40.3601 32.7866 40.4368 32.7008C40.5135 32.615 40.6104 32.5498 40.7187 32.511C40.827 32.4723 40.9433 32.4612 41.057 32.4789C41.1707 32.4965 41.2782 32.5423 41.3696 32.6121C41.5075 32.72 41.6318 32.8442 41.7396 32.9821C41.7789 33.0285 41.8074 33.0831 41.8229 33.1419C41.8385 33.2008 41.8408 33.2623 41.8296 33.3221L41.7496 33.5221Z" fill="#29AFE5"/>
<path d="M43.8404 31.5906C43.6511 31.596 43.4672 31.5266 43.3287 31.3975C43.1902 31.2683 43.1082 31.0898 43.1004 30.9006C43.0759 30.8327 43.0759 30.7585 43.1004 30.6906C43.1642 30.5421 43.2726 30.4172 43.4105 30.333C43.5485 30.2488 43.7091 30.2095 43.8704 30.2206C44.0279 30.2265 44.1793 30.2833 44.3018 30.3825C44.4244 30.4816 44.5116 30.6178 44.5504 30.7706C44.5704 30.8561 44.5704 30.9451 44.5504 31.0306C44.509 31.1885 44.4174 31.3286 44.2892 31.4296C44.1611 31.5307 44.0035 31.5872 43.8404 31.5906Z" fill="#1E427F"/>
<path d="M19.2402 21.7906V17.1406H20.1402V21.7906H19.2402ZM19.9002 21.7906V21.0206H22.2702V21.8206L19.9002 21.7906Z" fill="#1E427F"/>
<path d="M22.9199 21.7906V17.1406H23.8199V21.7906H22.9199ZM23.5799 17.9406V17.1406H26.1199V17.9406H23.5799ZM23.5799 19.8106V19.0206H25.9299V19.8006L23.5799 19.8106ZM23.5799 21.8106V21.0206H26.1599V21.8106H23.5799Z" fill="#1E427F"/>
<path d="M26.5605 21.7906L28.4405 17.1406H29.1805L31.0005 21.7906H30.0005L28.6405 18.0206H29.0005L27.5405 21.8306L26.5605 21.7906ZM27.5605 20.9306V20.1706H30.0605V20.9306H27.5605Z" fill="#1E427F"/>
<path d="M31.6406 21.7906V17.1406H32.5406V21.7906H31.6406ZM32.2606 21.7906V21.0206H33.4406C33.7131 21.0293 33.9827 20.9636 34.2206 20.8306C34.4481 20.7134 34.6334 20.5281 34.7506 20.3006C34.8834 20.0518 34.9489 19.7726 34.9406 19.4906C34.949 19.2119 34.8835 18.9358 34.7506 18.6906C34.6246 18.4697 34.4416 18.2866 34.2206 18.1606C33.9808 18.0324 33.7125 17.9671 33.4406 17.9706H32.2406V17.1706H33.4506C33.7917 17.1634 34.1311 17.2211 34.4506 17.3406C34.7367 17.4523 34.9983 17.6187 35.2206 17.8306C35.4361 18.0405 35.6063 18.2924 35.7206 18.5706C35.9603 19.164 35.9603 19.8272 35.7206 20.4206C35.6087 20.7001 35.4382 20.9525 35.2206 21.1606C35.0029 21.3735 34.7444 21.5402 34.4606 21.6506C34.1424 21.775 33.8021 21.8329 33.4606 21.8206L32.2606 21.7906Z" fill="#1E427F"/>
<path d="M36.5898 21.7906V17.1406H37.4898V21.7906H36.5898Z" fill="#1E427F"/>
<path d="M38.4395 21.7906V17.1406H39.0695L39.3395 18.0506V21.7906H38.4395ZM41.6595 21.7906L38.8995 18.2306L39.0695 17.1406L41.8395 20.7106L41.6595 21.7906ZM41.6595 21.7906L41.3995 20.9206V17.1406H42.2995V21.7906H41.6595Z" fill="#1E427F"/>
<path d="M45.3898 21.8714C45.0736 21.8693 44.7609 21.8047 44.4698 21.6814C44.1845 21.5601 43.9262 21.3833 43.7098 21.1614C43.261 20.7095 43.0093 20.0983 43.0098 19.4614C43.01 19.1385 43.0746 18.819 43.1998 18.5214C43.3247 18.2381 43.501 17.9805 43.7198 17.7614C43.9402 17.5421 44.2019 17.3688 44.4898 17.2514C44.8084 17.1283 45.1484 17.0705 45.4898 17.0814C45.8539 17.0767 46.215 17.1482 46.5498 17.2914C46.8611 17.4237 47.1356 17.6296 47.3498 17.8914L46.7398 18.5014C46.6007 18.3106 46.4147 18.1591 46.1998 18.0614C45.9773 17.959 45.7347 17.9077 45.4898 17.9114C45.2143 17.9043 44.9419 17.9698 44.6998 18.1014C44.4777 18.2348 44.2949 18.4245 44.1698 18.6514C44.037 18.9002 43.9715 19.1794 43.9798 19.4614C43.9725 19.7464 44.0379 20.0286 44.1698 20.2814C44.293 20.5073 44.4753 20.6955 44.6973 20.8259C44.9192 20.9562 45.1724 21.0238 45.4298 21.0214C45.689 21.0296 45.9464 20.9747 46.1798 20.8614C46.3853 20.7591 46.5532 20.5947 46.6598 20.3914C46.7744 20.1514 46.8293 19.8872 46.8198 19.6214L47.4098 20.0314H45.4098V19.2314H47.7898V19.3614C47.8071 19.8457 47.704 20.3267 47.4898 20.7614C47.312 21.1209 47.0249 21.4149 46.6698 21.6014C46.275 21.8043 45.8329 21.8976 45.3898 21.8714Z" fill="#1E427F"/>
<path d="M21.7207 25.6817V23.2617H21.9107L21.9807 23.5717V25.6817H21.7207ZM23.4007 25.6817L21.8707 23.6117V23.2617L23.3907 25.3417L23.4007 25.6817ZM23.4007 25.6817L23.3207 25.3917V23.2617H23.5807V25.6817H23.4007Z" fill="#1AA4DE"/>
<path d="M24.1992 25.6817V23.2617H24.4592V25.6817H24.1992ZM24.3692 23.5017V23.2617H25.7692V23.5017H24.3692ZM24.3692 24.5617V24.3317H25.6792V24.5617H24.3692ZM24.3692 25.6817V25.4517H25.7892V25.6817H24.3692Z" fill="#1AA4DE"/>
<path d="M26.0898 23.5017V23.2617H28.0898V23.5017H26.0898ZM26.9398 25.6817V23.3317H27.1998V25.6817H26.9398Z" fill="#1AA4DE"/>
<path d="M29.0009 25.6817L28.2109 23.2617H28.4709L29.1309 25.3517H29.0009L29.6509 23.2617H29.8509L30.5009 25.3517H30.4209L31.0809 23.2617H31.3409L30.5609 25.6817H30.3709L29.7109 23.6017H29.7909L29.1409 25.6817H29.0009Z" fill="#1AA4DE"/>
<path d="M32.759 25.7207C32.5936 25.7232 32.4297 25.6891 32.279 25.6207C32.1345 25.5589 32.005 25.4668 31.899 25.3507C31.7867 25.2398 31.6983 25.1071 31.639 24.9607C31.5784 24.8045 31.5479 24.6383 31.549 24.4707C31.5431 24.1442 31.6651 23.8284 31.889 23.5907C31.9993 23.474 32.1328 23.3817 32.2809 23.3197C32.429 23.2577 32.5885 23.2274 32.749 23.2307C32.9135 23.2278 33.0768 23.2584 33.229 23.3207C33.3758 23.3836 33.5085 23.4755 33.619 23.5907C33.7282 23.7022 33.8133 23.835 33.869 23.9807C33.9376 24.1348 33.9717 24.3021 33.969 24.4707C33.9727 24.6395 33.9385 24.8069 33.869 24.9607C33.8112 25.1084 33.7264 25.244 33.619 25.3607C33.51 25.4707 33.3811 25.559 33.239 25.6207C33.0884 25.6891 32.9245 25.7232 32.759 25.7207ZM32.759 25.4707C32.9316 25.4764 33.102 25.4312 33.249 25.3407C33.3871 25.2498 33.5005 25.1261 33.579 24.9807C33.6671 24.8254 33.712 24.6493 33.709 24.4707C33.707 24.3345 33.6833 24.1995 33.639 24.0707C33.594 23.9549 33.5259 23.8495 33.439 23.7607C33.3564 23.6687 33.2538 23.5969 33.139 23.5507C33.0188 23.5008 32.8892 23.4769 32.759 23.4807C32.5929 23.4781 32.4292 23.5216 32.2863 23.6063C32.1433 23.6911 32.0266 23.8137 31.949 23.9607C31.8674 24.1182 31.8262 24.2934 31.829 24.4707C31.8261 24.6073 31.8499 24.7432 31.899 24.8707C31.9404 24.989 32.005 25.0978 32.089 25.1907C32.1753 25.2786 32.277 25.3498 32.389 25.4007C32.5046 25.443 32.6261 25.4666 32.749 25.4707H32.759Z" fill="#1AA4DE"/>
<path d="M34.4609 25.6821V23.2621H34.7209V25.6821H34.4609ZM34.6309 24.6021V24.3821H35.3309C35.465 24.3905 35.5973 24.3476 35.7009 24.2621C35.7431 24.2203 35.7763 24.1704 35.7987 24.1154C35.821 24.0604 35.832 24.0015 35.8309 23.9421C35.8339 23.8825 35.8237 23.823 35.8013 23.7678C35.7788 23.7125 35.7446 23.6628 35.7009 23.6221C35.6519 23.5756 35.5936 23.54 35.5298 23.5176C35.4661 23.4952 35.3983 23.4865 35.3309 23.4921H34.6309V23.2621H35.3309C35.4729 23.2578 35.6138 23.2887 35.7409 23.3521C35.8475 23.4074 35.9373 23.4903 36.0009 23.5921C36.0621 23.6948 36.0933 23.8126 36.0909 23.9321C36.0946 24.0549 36.0634 24.1763 36.0009 24.2821C35.9373 24.384 35.8475 24.4669 35.7409 24.5221C35.6129 24.5821 35.4721 24.6096 35.3309 24.6021H34.6309ZM35.9309 25.6821L35.0009 24.5621L35.2509 24.4821L36.2509 25.6821H35.9309Z" fill="#1AA4DE"/>
<path d="M36.6406 25.6817V23.2617H36.9006V25.6817H36.6406ZM38.1706 25.6817L36.8506 24.4217L38.1406 23.2617H38.4906L37.1106 24.4917V24.3417L38.5306 25.6817H38.1706Z" fill="#1AA4DE"/>
<path d="M39.6094 25.6817V23.2617H39.8794V25.6817H39.6094ZM39.7894 25.6817V25.4517H41.1194V25.6817H39.7894Z" fill="#1AA4DE"/>
<path d="M41.5605 25.6817V23.2617H41.8205V25.6817H41.5605ZM41.7405 25.6817V25.4517H43.0705V25.6817H41.7405Z" fill="#1AA4DE"/>
<path d="M44.341 25.7213C44.1753 25.726 44.0109 25.6917 43.861 25.6213C43.7146 25.5621 43.5819 25.4736 43.471 25.3613C43.3605 25.245 43.2724 25.1095 43.211 24.9613C43.0859 24.6397 43.0859 24.2829 43.211 23.9613C43.2655 23.8126 43.3546 23.6789 43.471 23.5713C43.5779 23.4563 43.7072 23.3644 43.851 23.3013C44.0037 23.2408 44.1667 23.2102 44.331 23.2113C44.503 23.2068 44.6739 23.241 44.831 23.3113C44.9771 23.3701 45.1073 23.4627 45.211 23.5813L45.031 23.7613C44.9516 23.6633 44.8483 23.5875 44.731 23.5413C44.609 23.4904 44.4781 23.4642 44.346 23.4642C44.2138 23.4642 44.0829 23.4904 43.961 23.5413C43.8462 23.5875 43.7436 23.6593 43.661 23.7513C43.5717 23.8421 43.5034 23.9513 43.461 24.0713C43.4118 24.1954 43.388 24.328 43.391 24.4613C43.388 24.5979 43.4118 24.7338 43.461 24.8613C43.5067 24.9797 43.5746 25.0883 43.661 25.1813C43.7436 25.2733 43.8462 25.3452 43.961 25.3913C44.0794 25.4356 44.2045 25.4592 44.331 25.4613C44.4749 25.4629 44.6177 25.4357 44.751 25.3813C44.8638 25.3274 44.9656 25.2528 45.051 25.1613L45.231 25.3413C45.1178 25.4535 44.9858 25.5449 44.841 25.6113C44.6843 25.6841 44.5137 25.7217 44.341 25.7213Z" fill="#1AA4DE"/>
<path d="M64.4466 26.1187C64.4466 26.3841 64.5959 26.5168 64.8945 26.5168H68.0045C68.3694 26.5168 68.6099 26.5831 68.726 26.7158C68.8587 26.8319 68.925 27.0725 68.925 27.4374V29.0794C68.925 29.4443 68.8587 29.6931 68.726 29.8258C68.6099 29.9419 68.3694 30 68.0045 30H61.9338C61.5689 30 61.3201 29.9419 61.1874 29.8258C61.0713 29.6931 61.0132 29.4443 61.0132 29.0794V12.2606C61.0132 11.8957 61.0713 11.6551 61.1874 11.539C61.3201 11.4063 61.5689 11.34 61.9338 11.34H63.5261C63.891 11.34 64.1315 11.4063 64.2476 11.539C64.3803 11.6551 64.4466 11.8957 64.4466 12.2606V26.1187ZM73.1206 15.271V18.0576C73.1206 18.3562 73.2699 18.5054 73.5685 18.5054H76.6536C77.0185 18.5054 77.259 18.5718 77.3751 18.7045C77.5078 18.8206 77.5741 19.0611 77.5741 19.426V21.0681C77.5741 21.433 77.5078 21.6818 77.3751 21.8145C77.259 21.9306 77.0351 21.9886 76.7033 21.9886H73.5685C73.386 21.9886 73.2616 22.0218 73.1953 22.0882C73.1455 22.1545 73.1206 22.2706 73.1206 22.4365V26.069C73.1206 26.3675 73.2699 26.5168 73.5685 26.5168H76.9521C77.3171 26.5168 77.5576 26.5831 77.6737 26.7158C77.8064 26.8319 77.8727 27.0725 77.8727 27.4374V29.0794C77.8727 29.4443 77.8064 29.6931 77.6737 29.8258C77.5576 29.9419 77.3171 30 76.9521 30H70.6077C70.2428 30 69.994 29.9419 69.8613 29.8258C69.7452 29.6931 69.6872 29.4443 69.6872 29.0794V12.2606C69.6872 11.8957 69.7452 11.6551 69.8613 11.539C69.994 11.4063 70.2428 11.34 70.6077 11.34H76.9521C77.3171 11.34 77.5576 11.4063 77.6737 11.539C77.8064 11.6551 77.8727 11.8957 77.8727 12.2606V13.9026C77.8727 14.2675 77.8064 14.5163 77.6737 14.649C77.5576 14.7651 77.3171 14.8232 76.9521 14.8232H73.5685C73.386 14.8232 73.2616 14.8564 73.1953 14.9227C73.1455 14.9891 73.1206 15.1052 73.1206 15.271ZM82.244 29.0794C82.244 29.4443 82.1777 29.6931 82.045 29.8258C81.9289 29.9419 81.6883 30 81.3234 30H79.7311C79.3662 30 79.1174 29.9419 78.9847 29.8258C78.8686 29.6931 78.8106 29.4443 78.8106 29.0794V22.7102C78.8106 21.7979 78.9267 20.952 79.1589 20.1724L81.423 12.584C81.5722 12.0532 81.7547 11.7132 81.9703 11.5639C82.1859 11.4146 82.6172 11.34 83.2641 11.34H84.1598C84.8066 11.34 85.2379 11.4146 85.4535 11.5639C85.6691 11.7132 85.8516 12.0532 86.0009 12.584L88.265 20.1724C88.4972 20.9354 88.6133 21.7813 88.6133 22.7102V29.0794C88.6133 29.4443 88.5469 29.6931 88.4142 29.8258C88.2981 29.9419 88.0576 30 87.6927 30H86.1004C85.7355 30 85.4867 29.9419 85.354 29.8258C85.2379 29.6931 85.1798 29.4443 85.1798 29.0794V25.7953C85.1798 25.6128 85.1467 25.4967 85.0803 25.447C85.014 25.3806 84.8979 25.3474 84.732 25.3474H82.6918C82.526 25.3474 82.4099 25.3806 82.3435 25.447C82.2772 25.4967 82.244 25.6128 82.244 25.7953V29.0794ZM84.8066 21.8642C85.0886 21.8642 85.2296 21.7564 85.2296 21.5408C85.2296 21.4579 85.213 21.3335 85.1798 21.1676L84.0354 16.3658C84.0022 16.1667 83.8944 16.0672 83.7119 16.0672C83.5295 16.0672 83.4217 16.1667 83.3885 16.3658L82.244 21.1676C82.2108 21.3335 82.1942 21.4579 82.1942 21.5408C82.1942 21.7564 82.3352 21.8642 82.6172 21.8642H84.8066ZM94.0768 11.34C96.3823 11.34 97.9166 11.7795 98.6796 12.6586C99.4426 13.5377 99.8241 15.0886 99.8241 17.3112V24.0288C99.8241 26.2514 99.4426 27.8023 98.6796 28.6814C97.9166 29.5605 96.3823 30 94.0768 30H91.0414C90.6765 30 90.4277 29.9419 90.295 29.8258C90.1789 29.6931 90.1209 29.4443 90.1209 29.0794V12.2606C90.1209 11.8957 90.1789 11.6551 90.295 11.539C90.4277 11.4063 90.6765 11.34 91.0414 11.34H94.0768ZM94.0021 14.8232C93.8197 14.8232 93.6953 14.8564 93.6289 14.9227C93.5792 14.9891 93.5543 15.1052 93.5543 15.271V26.069C93.5543 26.3675 93.7036 26.5168 94.0021 26.5168H94.2758C94.9725 26.5168 95.4783 26.3426 95.7935 25.9943C96.1252 25.6294 96.2911 25.0489 96.2911 24.2527V17.0873C96.2911 16.2911 96.1252 15.7189 95.7935 15.3706C95.4783 15.0057 94.9725 14.8232 94.2758 14.8232H94.0021ZM105.095 12.2606V29.0794C105.095 29.4443 105.029 29.6931 104.896 29.8258C104.78 29.9419 104.54 30 104.175 30H102.582C102.218 30 101.969 29.9419 101.836 29.8258C101.72 29.6931 101.662 29.4443 101.662 29.0794V12.2606C101.662 11.8957 101.72 11.6551 101.836 11.539C101.969 11.4063 102.218 11.34 102.582 11.34H104.175C104.54 11.34 104.78 11.4063 104.896 11.539C105.029 11.6551 105.095 11.8957 105.095 12.2606ZM113.617 17.4854C113.717 17.6678 113.824 17.759 113.941 17.759C114.073 17.759 114.14 17.6761 114.14 17.5102V12.2606C114.14 11.8957 114.198 11.6551 114.314 11.539C114.446 11.4063 114.695 11.34 115.06 11.34H116.578C116.943 11.34 117.183 11.4063 117.299 11.539C117.432 11.6551 117.498 11.8957 117.498 12.2606V29.0794C117.498 29.4443 117.432 29.6931 117.299 29.8258C117.183 29.9419 116.943 30 116.578 30H115.06C114.695 30 114.446 29.9419 114.314 29.8258C114.198 29.6931 114.14 29.4443 114.14 29.0794V25.6709C114.14 24.825 113.941 24.0288 113.542 23.2824L111.229 18.9782C111.129 18.7957 111.021 18.7045 110.905 18.7045C110.772 18.7045 110.706 18.7874 110.706 18.9533V29.0794C110.706 29.4443 110.64 29.6931 110.507 29.8258C110.391 29.9419 110.15 30 109.786 30H108.268C107.903 30 107.654 29.9419 107.522 29.8258C107.405 29.6931 107.347 29.4443 107.347 29.0794V12.2606C107.347 11.8957 107.405 11.6551 107.522 11.539C107.654 11.4063 107.903 11.34 108.268 11.34H109.238C109.719 11.34 110.076 11.4146 110.308 11.5639C110.54 11.6966 110.781 12.0118 111.03 12.5094L113.617 17.4854ZM125.784 23.357C125.784 23.1746 125.751 23.0585 125.684 23.0087C125.635 22.9424 125.519 22.9092 125.336 22.9092H125.038C124.673 22.9092 124.424 22.8511 124.291 22.735C124.175 22.6023 124.117 22.3535 124.117 21.9886V20.3466C124.117 19.9817 124.175 19.7411 124.291 19.625C124.424 19.4923 124.673 19.426 125.038 19.426H128.197C128.562 19.426 128.803 19.4923 128.919 19.625C129.052 19.7411 129.118 19.9817 129.118 20.3466V24.7752C129.118 26.7988 128.761 28.2169 128.048 29.0297C127.351 29.8424 126.107 30.2488 124.316 30.2488C122.525 30.2488 121.272 29.8424 120.559 29.0297C119.863 28.2169 119.514 26.7988 119.514 24.7752V16.5648C119.514 14.5412 119.863 13.1231 120.559 12.3103C121.272 11.4976 122.525 11.0912 124.316 11.0912C126.107 11.0912 127.343 11.4976 128.023 12.3103C128.72 13.1231 129.068 14.5412 129.068 16.5648V16.6892C129.068 17.0541 129.002 17.3029 128.869 17.4356C128.753 17.5517 128.513 17.6098 128.148 17.6098H126.555C126.19 17.6098 125.942 17.5517 125.809 17.4356C125.693 17.3029 125.635 17.0541 125.635 16.6892V15.9677C125.635 15.0388 125.203 14.5744 124.341 14.5744C123.478 14.5744 123.047 15.0388 123.047 15.9677V25.3723C123.047 26.3012 123.503 26.7656 124.416 26.7656C124.897 26.7656 125.245 26.6578 125.461 26.4422C125.676 26.2265 125.784 25.8699 125.784 25.3723V23.357ZM64.6634 40.952C64.7274 41.0693 64.7967 41.128 64.8714 41.128C64.9567 41.128 64.9994 41.0747 64.9994 40.968V37.592C64.9994 37.3573 65.0367 37.2027 65.1114 37.128C65.1967 37.0427 65.3567 37 65.5914 37H66.5674C66.802 37 66.9567 37.0427 67.0314 37.128C67.1167 37.2027 67.1594 37.3573 67.1594 37.592V48.408C67.1594 48.6427 67.1167 48.8027 67.0314 48.888C66.9567 48.9627 66.802 49 66.5674 49H65.5914C65.3567 49 65.1967 48.9627 65.1114 48.888C65.0367 48.8027 64.9994 48.6427 64.9994 48.408V46.216C64.9994 45.672 64.8714 45.16 64.6154 44.68L63.1274 41.912C63.0634 41.7947 62.994 41.736 62.9194 41.736C62.834 41.736 62.7914 41.7893 62.7914 41.896V48.408C62.7914 48.6427 62.7487 48.8027 62.6634 48.888C62.5887 48.9627 62.434 49 62.1994 49H61.2234C60.9887 49 60.8287 48.9627 60.7434 48.888C60.6687 48.8027 60.6314 48.6427 60.6314 48.408V37.592C60.6314 37.3573 60.6687 37.2027 60.7434 37.128C60.8287 37.0427 60.9887 37 61.2234 37H61.8474C62.1567 37 62.386 37.048 62.5354 37.144C62.6847 37.2293 62.8394 37.432 62.9994 37.752L64.6634 40.952ZM70.8237 39.528V41.32C70.8237 41.512 70.9197 41.608 71.1117 41.608H73.0957C73.3304 41.608 73.4851 41.6507 73.5597 41.736C73.6451 41.8107 73.6877 41.9653 73.6877 42.2V43.256C73.6877 43.4907 73.6451 43.6507 73.5597 43.736C73.4851 43.8107 73.3411 43.848 73.1277 43.848H71.1117C70.9944 43.848 70.9144 43.8693 70.8717 43.912C70.8397 43.9547 70.8237 44.0293 70.8237 44.136V46.472C70.8237 46.664 70.9197 46.76 71.1117 46.76H73.2877C73.5224 46.76 73.6771 46.8027 73.7517 46.888C73.8371 46.9627 73.8797 47.1173 73.8797 47.352V48.408C73.8797 48.6427 73.8371 48.8027 73.7517 48.888C73.6771 48.9627 73.5224 49 73.2877 49H69.2077C68.9731 49 68.8131 48.9627 68.7277 48.888C68.6531 48.8027 68.6157 48.6427 68.6157 48.408V37.592C68.6157 37.3573 68.6531 37.2027 68.7277 37.128C68.8131 37.0427 68.9731 37 69.2077 37H73.2877C73.5224 37 73.6771 37.0427 73.7517 37.128C73.8371 37.2027 73.8797 37.3573 73.8797 37.592V38.648C73.8797 38.8827 73.8371 39.0427 73.7517 39.128C73.6771 39.2027 73.5224 39.24 73.2877 39.24H71.1117C70.9944 39.24 70.9144 39.2613 70.8717 39.304C70.8397 39.3467 70.8237 39.4213 70.8237 39.528ZM79.6951 39.24H78.7031C78.5964 39.24 78.5218 39.2613 78.4791 39.304C78.4364 39.3467 78.4151 39.4213 78.4151 39.528V48.408C78.4151 48.6427 78.3724 48.8027 78.2871 48.888C78.2124 48.9627 78.0578 49 77.8231 49H76.7991C76.5644 49 76.4044 48.9627 76.3191 48.888C76.2444 48.8027 76.2071 48.6427 76.2071 48.408V39.528C76.2071 39.4213 76.1858 39.3467 76.1431 39.304C76.1004 39.2613 76.0258 39.24 75.9191 39.24H74.9271C74.6924 39.24 74.5324 39.2027 74.4471 39.128C74.3724 39.0427 74.3351 38.8827 74.3351 38.648V37.592C74.3351 37.3573 74.3724 37.2027 74.4471 37.128C74.5324 37.0427 74.6924 37 74.9271 37H79.6951C79.9298 37 80.0844 37.0427 80.1591 37.128C80.2444 37.2027 80.2871 37.3573 80.2871 37.592V38.648C80.2871 38.8827 80.2444 39.0427 80.1591 39.128C80.0844 39.2027 79.9298 39.24 79.6951 39.24ZM85.1321 37H86.1561C86.3908 37 86.5454 37.0427 86.6201 37.128C86.7054 37.2027 86.7481 37.3573 86.7481 37.592V41.016C86.7481 41.2187 86.7641 41.4427 86.7961 41.688L87.4521 45.72C87.4628 45.784 87.4734 45.832 87.4841 45.864C87.5054 45.896 87.5268 45.9227 87.5481 45.944C87.5801 45.9547 87.6228 45.96 87.6761 45.96C87.8148 45.96 87.8894 45.88 87.9001 45.72L88.2841 41.688C88.2841 41.656 88.2894 41.56 88.3001 41.4C88.3214 41.2293 88.3321 41.1013 88.3321 41.016V37.592C88.3321 37.3573 88.3694 37.2027 88.4441 37.128C88.5294 37.0427 88.6894 37 88.9241 37H89.9481C90.1828 37 90.3374 37.0427 90.4121 37.128C90.4974 37.2027 90.5401 37.3573 90.5401 37.592V40.376C90.5401 40.8773 90.4761 41.56 90.3481 42.424L89.5001 47.992C89.4361 48.408 89.3134 48.68 89.1321 48.808C88.9614 48.936 88.6414 49 88.1721 49H87.4041C86.9348 49 86.6041 48.936 86.4121 48.808C86.2308 48.6693 86.1188 48.3973 86.0761 47.992L85.7721 45.56C85.7614 45.5067 85.7241 45.48 85.6601 45.48C85.6068 45.48 85.5748 45.5067 85.5641 45.56L85.2121 47.992C85.1588 48.3973 85.0414 48.6693 84.8601 48.808C84.6788 48.936 84.3534 49 83.8841 49H83.1161C82.6468 49 82.3214 48.936 82.1401 48.808C81.9694 48.68 81.8521 48.408 81.7881 47.992L80.9401 42.424C80.8121 41.56 80.7481 40.8773 80.7481 40.376V37.592C80.7481 37.3573 80.7854 37.2027 80.8601 37.128C80.9454 37.0427 81.1054 37 81.3401 37H82.3641C82.5988 37 82.7534 37.0427 82.8281 37.128C82.9134 37.2027 82.9561 37.3573 82.9561 37.592V41.016C82.9561 41.1013 82.9614 41.2293 82.9721 41.4C82.9934 41.56 83.0041 41.656 83.0041 41.688L83.3881 45.72C83.3988 45.88 83.4734 45.96 83.6121 45.96C83.6868 45.96 83.7348 45.944 83.7561 45.912C83.7881 45.88 83.8148 45.816 83.8361 45.72L84.4921 41.688C84.5241 41.4533 84.5401 41.2293 84.5401 41.016V37.592C84.5401 37.3573 84.5774 37.2027 84.6521 37.128C84.7374 37.0427 84.8974 37 85.1321 37ZM97.5849 45.48C97.5849 46.8453 97.3555 47.8 96.8969 48.344C96.4489 48.888 95.6489 49.16 94.4969 49.16C93.3449 49.16 92.5395 48.888 92.0809 48.344C91.6329 47.8 91.4089 46.8453 91.4089 45.48V40.52C91.4089 39.1653 91.6329 38.216 92.0809 37.672C92.5395 37.1173 93.3449 36.84 94.4969 36.84C95.6489 36.84 96.4489 37.1173 96.8969 37.672C97.3555 38.216 97.5849 39.1653 97.5849 40.52V45.48ZM93.6809 46.024C93.6809 46.344 93.7449 46.5733 93.8729 46.712C94.0009 46.8507 94.2089 46.92 94.4969 46.92C94.7849 46.92 94.9929 46.8507 95.1209 46.712C95.2489 46.5733 95.3129 46.344 95.3129 46.024V40.056C95.3129 39.704 95.2489 39.4533 95.1209 39.304C94.9929 39.1547 94.7849 39.08 94.4969 39.08C94.2089 39.08 94.0009 39.1547 93.8729 39.304C93.7449 39.4533 93.6809 39.704 93.6809 40.056V46.024ZM102.881 48.408V46.536C102.881 46.088 102.791 45.6987 102.609 45.368L102.225 44.68C102.14 44.5413 102.06 44.4507 101.985 44.408C101.921 44.3653 101.815 44.344 101.665 44.344H101.377C101.26 44.344 101.18 44.3653 101.137 44.408C101.105 44.44 101.089 44.5147 101.089 44.632V48.408C101.089 48.6427 101.047 48.8027 100.961 48.888C100.887 48.9627 100.732 49 100.497 49H99.4734C99.2387 49 99.0787 48.9627 98.9934 48.888C98.9187 48.8027 98.8814 48.6427 98.8814 48.408V37.592C98.8814 37.3573 98.9187 37.2027 98.9934 37.128C99.0787 37.0427 99.2387 37 99.4734 37H101.585C102.812 37 103.708 37.2293 104.273 37.688C104.839 38.136 105.121 38.8667 105.121 39.88V41.032C105.121 41.64 105.057 42.136 104.929 42.52C104.812 42.8933 104.599 43.208 104.289 43.464C104.225 43.5067 104.193 43.5547 104.193 43.608C104.193 43.6507 104.215 43.7093 104.257 43.784L104.705 44.6C104.876 44.9093 104.983 45.1707 105.025 45.384C105.068 45.5867 105.089 45.9013 105.089 46.328V48.408C105.089 48.6427 105.047 48.8027 104.961 48.888C104.887 48.9627 104.732 49 104.497 49H103.473C103.239 49 103.079 48.9627 102.993 48.888C102.919 48.8027 102.881 48.6427 102.881 48.408ZM101.089 39.448V41.864C101.089 41.9707 101.105 42.0453 101.137 42.088C101.18 42.1307 101.26 42.152 101.377 42.152H101.713C102.471 42.152 102.849 41.784 102.849 41.048V40.216C102.849 39.8427 102.759 39.576 102.577 39.416C102.396 39.2453 102.108 39.16 101.713 39.16H101.377C101.26 39.16 101.18 39.1813 101.137 39.224C101.105 39.256 101.089 39.3307 101.089 39.448ZM111.598 42.312C111.491 42.4187 111.459 42.536 111.502 42.664L113.006 48.136C113.166 48.712 112.952 49 112.366 49H111.582C111.347 49 111.176 48.9627 111.07 48.888C110.963 48.8133 110.883 48.6747 110.83 48.472L109.678 44.328C109.635 44.168 109.544 44.1467 109.406 44.264L108.766 44.888C108.638 45.0053 108.574 45.1653 108.574 45.368V48.408C108.574 48.6427 108.531 48.8027 108.446 48.888C108.371 48.9627 108.216 49 107.982 49H106.958C106.723 49 106.563 48.9627 106.478 48.888C106.403 48.8027 106.366 48.6427 106.366 48.408V37.592C106.366 37.3573 106.403 37.2027 106.478 37.128C106.563 37.0427 106.723 37 106.958 37H107.95C108.184 37 108.339 37.0427 108.414 37.128C108.499 37.2027 108.542 37.3573 108.542 37.592V41.704C108.542 41.8107 108.584 41.864 108.67 41.864C108.744 41.864 108.824 41.8267 108.91 41.752L109.582 41.144C109.912 40.8453 110.12 40.5893 110.206 40.376C110.291 40.152 110.334 39.7627 110.334 39.208V37.592C110.334 37.3573 110.371 37.2027 110.446 37.128C110.531 37.0427 110.691 37 110.926 37H111.95C112.184 37 112.339 37.0427 112.414 37.128C112.499 37.2027 112.542 37.3573 112.542 37.592V39.208C112.542 40.136 112.488 40.7707 112.382 41.112C112.286 41.4533 112.024 41.8533 111.598 42.312ZM118.714 46.504C118.714 46.6747 118.81 46.76 119.002 46.76H121.002C121.237 46.76 121.392 46.8027 121.466 46.888C121.552 46.9627 121.594 47.1173 121.594 47.352V48.408C121.594 48.6427 121.552 48.8027 121.466 48.888C121.392 48.9627 121.237 49 121.002 49H117.098C116.864 49 116.704 48.9627 116.618 48.888C116.544 48.8027 116.506 48.6427 116.506 48.408V37.592C116.506 37.3573 116.544 37.2027 116.618 37.128C116.704 37.0427 116.864 37 117.098 37H118.122C118.357 37 118.512 37.0427 118.586 37.128C118.672 37.2027 118.714 37.3573 118.714 37.592V46.504ZM124.292 46.504C124.292 46.6747 124.388 46.76 124.58 46.76H126.58C126.815 46.76 126.97 46.8027 127.044 46.888C127.13 46.9627 127.172 47.1173 127.172 47.352V48.408C127.172 48.6427 127.13 48.8027 127.044 48.888C126.97 48.9627 126.815 49 126.58 49H122.676C122.442 49 122.282 48.9627 122.196 48.888C122.122 48.8027 122.084 48.6427 122.084 48.408V37.592C122.084 37.3573 122.122 37.2027 122.196 37.128C122.282 37.0427 122.442 37 122.676 37H123.7C123.935 37 124.09 37.0427 124.164 37.128C124.25 37.2027 124.292 37.3573 124.292 37.592V46.504ZM133.647 45.16V45.64C133.647 46.9413 133.423 47.8533 132.975 48.376C132.537 48.8987 131.743 49.16 130.591 49.16C129.439 49.16 128.633 48.8987 128.175 48.376C127.727 47.8533 127.503 46.9413 127.503 45.64V40.36C127.503 39.0587 127.727 38.1467 128.175 37.624C128.633 37.1013 129.439 36.84 130.591 36.84C131.743 36.84 132.537 37.1013 132.975 37.624C133.423 38.1467 133.647 39.0587 133.647 40.36V40.84C133.647 41.0747 133.604 41.2347 133.519 41.32C133.444 41.3947 133.289 41.432 133.055 41.432H132.031C131.796 41.432 131.636 41.3947 131.551 41.32C131.476 41.2347 131.439 41.0747 131.439 40.84V39.976C131.439 39.3787 131.161 39.08 130.607 39.08C130.052 39.08 129.775 39.3787 129.775 39.976V46.024C129.775 46.6213 130.052 46.92 130.607 46.92C131.161 46.92 131.439 46.6213 131.439 46.024V45.16C131.439 44.9253 131.476 44.7707 131.551 44.696C131.636 44.6107 131.796 44.568 132.031 44.568H133.055C133.289 44.568 133.444 44.6107 133.519 44.696C133.604 44.7707 133.647 44.9253 133.647 45.16Z" fill="white"/>
</svg>
